ffmpeg started on 2022-05-10 at 02:36:43
Report written to "ffmpeg-20220510-023643.log"
ffmpeg version 4.2.6 Copyright (c) 2000-2022 the FFmpeg developers
  built with gcc 8 (GCC)
  configuration: --prefix=/usr --bindir=/usr/bin --datadir=/usr/share/ffmpeg --docdir=/usr/share/doc/ffmpeg --incdir=/usr/include/ffmpeg --libdir=/usr/lib64 --mandir=/usr/share/man --arch=x86_64 --optflags='-O2 -g -pipe -Wall -Werror=format-security -Wp,-D_FORTIFY_SOURCE=2 -Wp,-D_GLIBCXX_ASSERTIONS -fexceptions -fstack-protector-strong -grecord-gcc-switches -specs=/usr/lib/rpm/redhat/redhat-hardened-cc1 -specs=/usr/lib/rpm/redhat/redhat-annobin-cc1 -m64 -mtune=generic -fasynchronous-unwind-tables -fstack-clash-protection -fcf-protection' --extra-ldflags='-Wl,-z,relro -Wl,-z,now -specs=/usr/lib/rpm/redhat/redhat-hardened-ld ' --extra-cflags=' ' --enable-libopencore-amrnb --enable-libopencore-amrwb --enable-libvo-amrwbenc --enable-version3 --enable-bzlib --disable-crystalhd --enable-fontconfig --enable-frei0r --enable-gcrypt --enable-gnutls --enable-ladspa --enable-libaom --enable-libdav1d --enable-libass --enable-libbluray --enable-libcdio --enable-libdrm --enable-libjack --enable-libfreetype --enable-libfribidi --enable-libgsm --enable-libmp3lame --enable-nvenc --enable-openal --enable-opencl --enable-opengl --enable-libopenjpeg --enable-libopus --enable-libpulse --enable-librsvg --enable-libsrt --enable-libsoxr --enable-libspeex --enable-libssh --enable-libtheora --enable-libvorbis --enable-libv4l2 --enable-libvidstab --enable-libvmaf --enable-version3 --enable-vapoursynth --enable-libvpx --enable-libx264 --enable-libx265 --enable-libxvid --enable-libzimg --enable-libzvbi --enable-avfilter --enable-avresample --enable-libmodplug --enable-postproc --enable-pthreads --disable-static --enable-shared --enable-gpl --disable-debug --disable-stripping --shlibdir=/usr/lib64 --enable-libmfx --enable-runtime-cpudetect
  libavutil      56. 31.100 / 56. 31.100
  libavcodec     58. 54.100 / 58. 54.100
  libavformat    58. 29.100 / 58. 29.100
  libavdevice    58.  8.100 / 58.  8.100
  libavfilter     7. 57.100 /  7. 57.100
  libavresample   4.  0.  0 /  4.  0.  0
  libswscale      5.  5.100 /  5.  5.100
  libswresample   3.  5.100 /  3.  5.100
  libpostproc    55.  5.100 / 55.  5.100
Input #0, matroska,webm, from 'uhd1.webm':
  Metadata:
    encoder         : google/video-file
  Duration: 00:05:13.78, start: 0.000000, bitrate: 25462 kb/s
    Stream #0:0(eng): Video: vp9 (Profile 0), yuv420p(tv, bt709), 3840x2160, SAR 1:1 DAR 16:9, 59.94 fps, 59.94 tbr, 1k tbn, 1k tbc (default)
    Side data:
      Content Light Level Metadata, MaxCLL=1100, MaxFALL=180
Stream mapping:
  Stream #0:0 -> #0:0 (vp9 (native) -> h264 (libx264))
Press [q] to stop, [?] for help
[libx264 @ 0x5641edb932c0] Application has requested 32 threads. Using a thread count greater than 16 is not recommended.
[libx264 @ 0x5641edb932c0] using SAR=1/1
[libx264 @ 0x5641edb932c0] using cpu capabilities: MMX2 SSE2Fast SSSE3 SSE4.2 AVX FMA3 BMI2 AVX2 AVX512
[libx264 @ 0x5641edb932c0] profile Constrained Baseline, level 5.2, 4:2:0, 8-bit
[libx264 @ 0x5641edb932c0] 264 - core 157 r2980 34c06d1 - H.264/MPEG-4 AVC codec - Copyleft 2003-2019 - http://www.videolan.org/x264.html - options: cabac=0 ref=1 deblock=0:0:0 analyse=0:0 me=dia subme=0 psy=0 mixed_ref=0 me_range=16 chroma_me=1 trellis=0 8x8dct=0 cqm=0 deadzone=21,11 fast_pskip=1 chroma_qp_offset=0 threads=32 lookahead_threads=5 sliced_threads=0 nr=0 decimate=1 interlaced=0 bluray_compat=0 constrained_intra=0 bframes=0 weightp=0 keyint=120 keyint_min=12 scenecut=0 intra_refresh=0 rc_lookahead=0 rc=abr mbtree=0 bitrate=100000 ratetol=1.0 qcomp=0.60 qpmin=0 qpmax=69 qpstep=4 vbv_maxrate=200000 vbv_bufsize=200000 nal_hrd=none filler=0 ip_ratio=1.40 aq=0
Output #0, mp4, to 'uhd4.mp4':
  Metadata:
    encoder         : Lavf58.29.100
    Stream #0:0(eng): Video: h264 (libx264) (avc1 / 0x31637661), yuv420p, 3840x2160 [SAR 1:1 DAR 16:9], q=-1--1, 100000 kb/s, 59.94 fps, 19001 tbn, 59.94 tbc (default)
    Metadata:
      encoder         : Lavc58.54.100 libx264
    Side data:
      cpb: bitrate max/min/avg: 200000000/0/100000000 buffer size: 200000000 vbv_delay: -1
      Content Light Level Metadata, MaxCLL=1100, MaxFALL=180
frame=   25 fps=0.0 q=0.0 size=       0kB time=00:00:00.00 bitrate=N/A speed=   0x    frame=   64 fps= 63 q=16.0 size=    6400kB time=00:00:00.50 bitrate=104742.5kbits/s speed=0.491x    frame=  105 fps= 68 q=16.0 size=   14592kB time=00:00:01.18 bitrate=100912.7kbits/s speed=0.773x    frame=  145 fps= 71 q=17.0 size=   22784kB time=00:00:01.85 bitrate=100786.5kbits/s speed=0.903x    frame=  184 fps= 72 q=18.0 size=   32256kB time=00:00:02.50 bitrate=105588.8kbits/s speed=0.976x    frame=  219 fps= 71 q=18.0 size=   40192kB time=00:00:03.08 bitrate=106676.4kbits/s speed=   1x    frame=  257 fps= 72 q=19.0 size=   48384kB time=00:00:03.72 bitrate=106536.5kbits/s speed=1.04x    frame=  298 fps= 73 q=18.0 size=   57088kB time=00:00:04.40 bitrate=106180.1kbits/s speed=1.08x    frame=  336 fps= 73 q=18.0 size=   64768kB time=00:00:05.03 bitrate=105306.8kbits/s speed= 1.1x    frame=  377 fps= 74 q=18.0 size=   72448kB time=00:00:05.72 bitrate=103713.6kbits/s speed=1.12x    frame=  411 fps= 73 q=17.0 size=   79360kB time=00:00:06.28 bitrate=103362.8kbits/s speed=1.12x    frame=  457 fps= 75 q=15.0 size=   86784kB time=00:00:07.05 bitrate=100740.3kbits/s speed=1.15x    frame=  502 fps= 76 q=14.0 size=   90880kB time=00:00:07.80 bitrate=95351.4kbits/s speed=1.18x    frame=  547 fps= 77 q=12.0 size=   96256kB time=00:00:08.55 bitrate=92133.0kbits/s speed= 1.2x    frame=  590 fps= 77 q=12.0 size=  102144kB time=00:00:09.27 bitrate=90207.6kbits/s speed=1.21x    frame=  633 fps= 78 q=12.0 size=  109056kB time=00:00:09.99 bitrate=89398.0kbits/s speed=1.23x    frame=  676 fps= 78 q=12.0 size=  116992kB time=00:00:10.71 bitrate=89480.1kbits/s speed=1.24x    frame=  726 fps= 79 q=13.0 size=  126464kB time=00:00:11.54 bitrate=89735.9kbits/s speed=1.26x    frame=  758 fps= 78 q=17.0 size=  132864kB time=00:00:12.07 bitrate=90110.2kbits/s speed=1.25x    frame=  793 fps= 78 q=19.0 size=  143616kB time=00:00:12.66 bitrate=92910.9kbits/s speed=1.24x    frame=  830 fps= 78 q=17.0 size=  155904kB time=00:00:13.27 bitrate=96172.2kbits/s speed=1.24x    frame=  862 fps= 77 q=17.0 size=  164864kB time=00:00:13.81 bitrate=97769.0kbits/s speed=1.23x    frame=  897 fps= 77 q=17.0 size=  173824kB time=00:00:14.39 bitrate=98901.9kbits/s speed=1.23x    frame=  933 fps= 76 q=18.0 size=  183296kB time=00:00:14.99 bitrate=100115.0kbits/s speed=1.23x    frame=  971 fps= 76 q=18.0 size=  193024kB time=00:00:15.63 bitrate=101152.7kbits/s speed=1.23x    frame= 1005 fps= 76 q=19.0 size=  202240kB time=00:00:16.19 bitrate=102271.3kbits/s speed=1.22x    frame= 1041 fps= 76 q=19.0 size=  211712kB time=00:00:16.80 bitrate=103233.8kbits/s speed=1.22x    frame= 1081 fps= 76 q=18.0 size=  221184kB time=00:00:17.46 bitrate=103732.0kbits/s speed=1.23x    frame= 1120 fps= 76 q=17.0 size=  228608kB time=00:00:18.11 bitrate=103363.6kbits/s speed=1.23x    frame= 1156 fps= 76 q=20.0 size=  235776kB time=00:00:18.71 bitrate=103184.1kbits/s speed=1.23x    frame= 1191 fps= 76 q=20.0 size=  245504kB time=00:00:19.30 bitrate=104191.3kbits/s speed=1.22x    frame= 1229 fps= 76 q=21.0 size=  257792kB time=00:00:19.93 bitrate=105927.2kbits/s speed=1.23x    frame= 1270 fps= 76 q=21.0 size=  270592kB time=00:00:20.62 bitrate=107498.5kbits/s speed=1.23x    frame= 1301 fps= 75 q=21.0 size=  279808kB time=00:00:21.13 bitrate=108440.0kbits/s speed=1.22x    frame= 1334 fps= 75 q=21.0 size=  289024kB time=00:00:21.68 bitrate=109168.3kbits/s speed=1.22x    frame= 1367 fps= 75 q=22.0 size=  298240kB time=00:00:22.23 bitrate=109860.6kbits/s speed=1.21x    frame= 1405 fps= 75 q=22.0 size=  307968kB time=00:00:22.87 bitrate=110299.7kbits/s speed=1.22x    frame= 1442 fps= 75 q=23.0 size=  318208kB time=00:00:23.49 bitrate=110972.3kbits/s speed=1.22x    frame= 1473 fps= 74 q=23.0 size=  326656kB time=00:00:24.00 bitrate=111464.4kbits/s speed=1.21x    frame= 1519 fps= 75 q=23.0 size=  338944kB time=00:00:24.77 bitrate=112074.8kbits/s speed=1.22x    frame= 1550 fps= 74 q=23.0 size=  346624kB time=00:00:25.29 bitrate=112270.5kbits/s speed=1.21x    frame= 1580 fps= 74 q=23.0 size=  354560kB time=00:00:25.79 bitrate=112612.5kbits/s speed=1.21x    frame= 1621 fps= 74 q=23.0 size=  364544kB time=00:00:26.47 bitrate=112792.3kbits/s speed=1.21x    frame= 1664 fps= 74 q=18.0 size=  373760kB time=00:00:27.19 bitrate=112593.0kbits/s speed=1.21x    frame= 1696 fps= 74 q=19.0 size=  377600kB time=00:00:27.72 bitrate=111559.7kbits/s speed=1.21x    frame= 1739 fps= 74 q=19.0 size=  381696kB time=00:00:28.44 bitrate=109925.8kbits/s speed=1.22x    frame= 1784 fps= 75 q=17.0 size=  385280kB time=00:00:29.19 bitrate=108104.8kbits/s speed=1.22x    frame= 1830 fps= 75 q=18.0 size=  388864kB time=00:00:29.96 bitrate=106315.8kbits/s speed=1.23x    frame= 1873 fps= 75 q=17.0 size=  393728kB time=00:00:30.68 bitrate=105128.6kbits/s speed=1.23x    frame= 1923 fps= 75 q=14.0 size=  398336kB time=00:00:31.51 bitrate=103543.8kbits/s speed=1.24x    frame= 1957 fps= 75 q=17.0 size=  403200kB time=00:00:32.08 bitrate=102955.1kbits/s speed=1.23x    frame= 1999 fps= 75 q=17.0 size=  407552kB time=00:00:32.78 bitrate=101842.0kbits/s speed=1.24x    frame= 2039 fps= 76 q=21.0 size=  412160kB time=00:00:33.45 bitrate=100938.8kbits/s speed=1.24x    frame= 2074 fps= 75 q=18.0 size=  417792kB time=00:00:34.03 bitrate=100562.6kbits/s speed=1.24x    frame= 2114 fps= 75 q=18.0 size=  424448kB time=00:00:34.70 bitrate=100200.0kbits/s speed=1.24x    frame= 2150 fps= 75 q=18.0 size=  430336kB time=00:00:35.30 bitrate=99861.6kbits/s speed=1.24x    frame= 2180 fps= 75 q=18.0 size=  435712kB time=00:00:35.80 bitrate=99695.7kbits/s speed=1.23x    frame= 2215 fps= 75 q=18.0 size=  442624kB time=00:00:36.38 bitrate=99652.0kbits/s speed=1.23x    frame= 2258 fps= 75 q=18.0 size=  449792kB time=00:00:37.10 bitrate=99307.8kbits/s speed=1.24x    frame= 2290 fps= 75 q=18.0 size=  455424kB time=00:00:37.63 bitrate=99125.0kbits/s speed=1.23x    frame= 2320 fps= 75 q=18.0 size=  462336kB time=00:00:38.13 bitrate=99308.9kbits/s speed=1.23x    frame= 2356 fps= 75 q=18.0 size=  468480kB time=00:00:38.73 bitrate=99068.5kbits/s speed=1.23x    frame= 2392 fps= 75 q=18.0 size=  474880kB time=00:00:39.33 bitrate=98888.7kbits/s speed=1.23x    frame= 2426 fps= 74 q=18.0 size=  481280kB time=00:00:39.90 bitrate=98796.9kbits/s speed=1.23x    frame= 2459 fps= 74 q=19.0 size=  489216kB time=00:00:40.45 bitrate=99059.4kbits/s speed=1.22x    frame= 2498 fps= 74 q=19.0 size=  500224kB time=00:00:41.10 bitrate=99685.1kbits/s speed=1.22x    frame= 2533 fps= 74 q=19.0 size=  509184kB time=00:00:41.69 bitrate=100049.5kbits/s speed=1.22x    frame= 2564 fps= 74 q=15.0 size=  517120kB time=00:00:42.20 bitrate=100363.9kbits/s speed=1.22x    frame= 2606 fps= 74 q=14.0 size=  521216kB time=00:00:42.90 bitrate=99507.0kbits/s speed=1.22x    frame= 2648 fps= 74 q=14.0 size=  523264kB time=00:00:43.61 bitrate=98292.8kbits/s speed=1.23x    frame= 2692 fps= 75 q=13.0 size=  525824kB time=00:00:44.34 bitrate=97138.7kbits/s speed=1.23x    frame= 2734 fps= 75 q=17.0 size=  528384kB time=00:00:45.04 bitrate=96093.2kbits/s speed=1.23x    frame= 2775 fps= 75 q=15.0 size=  533760kB time=00:00:45.72 bitrate=95618.9kbits/s speed=1.23x    frame= 2819 fps= 75 q=15.0 size=  544256kB time=00:00:46.46 bitrate=95958.8kbits/s speed=1.23x    frame= 2859 fps= 75 q=15.0 size=  552704kB time=00:00:47.13 bitrate=96068.5kbits/s speed=1.24x    frame= 2895 fps= 75 q=16.0 size=  560640kB time=00:00:47.73 bitrate=96221.7kbits/s speed=1.24x    frame= 2932 fps= 75 q=16.0 size=  569088kB time=00:00:48.34 bitrate=96424.6kbits/s speed=1.23x    frame= 2972 fps= 75 q=16.0 size=  577792kB time=00:00:49.01 bitrate=96566.5kbits/s speed=1.24x    frame= 3013 fps= 75 q=16.0 size=  586752kB time=00:00:49.69 bitrate=96714.3kbits/s speed=1.24x    frame= 3053 fps= 75 q=16.0 size=  595200kB time=00:00:50.36 bitrate=96806.9kbits/s speed=1.24x    frame= 3089 fps= 75 q=15.0 size=  602880kB time=00:00:50.96 bitrate=96900.6kbits/s speed=1.24x    frame= 3133 fps= 75 q=15.0 size=  611840kB time=00:00:51.70 bitrate=96944.5kbits/s speed=1.24x    frame= 3170 fps= 75 q=15.0 size=  619520kB time=00:00:52.31 bitrate=97003.2kbits/s speed=1.24x    frame= 3209 fps= 75 q=15.0 size=  626432kB time=00:00:52.96 bitrate=96880.6kbits/s speed=1.24x    frame= 3250 fps= 75 q=15.0 size=  633856kB time=00:00:53.65 bitrate=96779.0kbits/s speed=1.24x    frame= 3287 fps= 75 q=15.0 size=  641024kB time=00:00:54.27 bitrate=96760.2kbits/s speed=1.24x    frame= 3324 fps= 75 q=15.0 size=  647936kB time=00:00:54.88 bitrate=96703.7kbits/s speed=1.24x    frame= 3365 fps= 75 q=16.0 size=  655872kB time=00:00:55.57 bitrate=96683.2kbits/s speed=1.24x    frame= 3399 fps= 75 q=16.0 size=  662528kB time=00:00:56.13 bitrate=96677.6kbits/s speed=1.24x    frame= 3436 fps= 75 q=16.0 size=  668928kB time=00:00:56.75 bitrate=96549.9kbits/s speed=1.24x    frame= 3471 fps= 75 q=16.0 size=  674816kB time=00:00:57.34 bitrate=96407.9kbits/s speed=1.24x    frame= 3504 fps= 75 q=16.0 size=  680448kB time=00:00:57.89 bitrate=96288.0kbits/s speed=1.24x    frame= 3541 fps= 75 q=16.0 size=  687616kB time=00:00:58.50 bitrate=96275.8kbits/s speed=1.24x    frame= 3582 fps= 75 q=16.0 size=  695040kB time=00:00:59.19 bitrate=96190.7kbits/s speed=1.24x    frame= 3614 fps= 75 q=16.0 size=  701184kB time=00:00:59.72 bitrate=96173.6kbits/s speed=1.24x    frame= 3646 fps= 75 q=15.0 size=  707584kB time=00:01:00.26 bitrate=96191.6kbits/s speed=1.24x    frame= 3689 fps= 75 q=15.0 size=  715008kB time=00:01:00.97 bitrate=96057.3kbits/s speed=1.24x    frame= 3724 fps= 75 q=16.0 size=  721152kB time=00:01:01.56 bitrate=95963.8kbits/s speed=1.24x    frame= 3754 fps= 75 q=13.0 size=  726784kB time=00:01:02.06 bitrate=95933.3kbits/s speed=1.23x    frame= 3801 fps= 75 q=14.0 size=  733184kB time=00:01:02.84 bitrate=95570.6kbits/s speed=1.24x    frame= 3845 fps= 75 q=15.0 size=  739328kB time=00:01:03.58 bitrate=95258.8kbits/s speed=1.24x    frame= 3877 fps= 75 q=12.0 size=  744704kB time=00:01:04.11 bitrate=95152.5kbits/s speed=1.24x    frame= 3918 fps= 75 q=13.0 size=  751104kB time=00:01:04.79 bitrate=94957.1kbits/s speed=1.24x    frame= 3957 fps= 75 q=13.0 size=  757248kB time=00:01:05.44 bitrate=94782.2kbits/s speed=1.24x    frame= 3994 fps= 75 q=13.0 size=  764416kB time=00:01:06.06 bitrate=94785.4kbits/s speed=1.24x    frame= 4033 fps= 75 q=15.0 size=  770560kB time=00:01:06.71 bitrate=94615.4kbits/s speed=1.24x    frame= 4067 fps= 75 q=15.0 size=  777728kB time=00:01:07.28 bitrate=94690.5kbits/s speed=1.24x    frame= 4099 fps= 75 q=15.0 size=  786688kB time=00:01:07.81 bitrate=95027.4kbits/s speed=1.24x    frame= 4133 fps= 75 q=15.0 size=  796416kB time=00:01:08.38 bitrate=95404.5kbits/s speed=1.23x    frame= 4166 fps= 75 q=16.0 size=  804608kB time=00:01:08.93 bitrate=95616.1kbits/s speed=1.23x    frame= 4202 fps= 74 q=15.0 size=  814080kB time=00:01:09.53 bitrate=95906.1kbits/s speed=1.23x    frame= 4243 fps= 75 q=15.0 size=  825088kB time=00:01:10.22 bitrate=96256.1kbits/s speed=1.23x    frame= 4278 fps= 75 q=15.0 size=  833536kB time=00:01:10.80 bitrate=96439.7kbits/s speed=1.23x    frame= 4316 fps= 74 q=19.0 size=  843264kB time=00:01:11.43 bitrate=96699.4kbits/s speed=1.23x    frame= 4342 fps= 74 q=14.0 size=  848896kB time=00:01:11.87 bitrate=96757.7kbits/s speed=1.23x    frame= 4378 fps= 74 q=15.0 size=  857856kB time=00:01:12.47 bitrate=96968.7kbits/s speed=1.23x    frame= 4413 fps= 74 q=15.0 size=  865792kB time=00:01:13.05 bitrate=97083.5kbits/s speed=1.23x    frame= 4450 fps= 74 q=16.0 size=  874496kB time=00:01:13.67 bitrate=97237.9kbits/s speed=1.23x    frame= 4483 fps= 74 q=16.0 size=  883200kB time=00:01:14.22 bitrate=97477.3kbits/s speed=1.23x    frame= 4521 fps= 74 q=16.0 size=  892928kB time=00:01:14.85 bitrate=97716.3kbits/s speed=1.23x    frame= 4557 fps= 74 q=17.0 size=  901888kB time=00:01:15.45 bitrate=97911.3kbits/s speed=1.23x    frame= 4582 fps= 74 q=16.0 size=  908544kB time=00:01:15.87 bitrate=98091.7kbits/s speed=1.22x    frame= 4621 fps= 74 q=13.0 size=  919040kB time=00:01:16.52 bitrate=98381.3kbits/s speed=1.22x    frame= 4676 fps= 74 q=13.0 size=  926976kB time=00:01:17.44 bitrate=98055.1kbits/s speed=1.23x    frame= 4708 fps= 74 q=13.0 size=  931072kB time=00:01:17.97 bitrate=97814.1kbits/s speed=1.23x    frame= 4757 fps= 74 q=13.0 size=  937216kB time=00:01:18.79 bitrate=97438.1kbits/s speed=1.23x    frame= 4804 fps= 74 q=15.0 size=  943104kB time=00:01:19.57 bitrate=97084.1kbits/s speed=1.23x    frame= 4837 fps= 74 q=13.0 size=  947968kB time=00:01:20.13 bitrate=96914.3kbits/s speed=1.23x    frame= 4880 fps= 74 q=13.0 size=  953856kB time=00:01:20.84 bitrate=96651.0kbits/s speed=1.23x    frame= 4921 fps= 74 q=11.0 size=  959488kB time=00:01:21.53 bitrate=96406.0kbits/s speed=1.23x    frame= 4963 fps= 75 q=13.0 size=  968960kB time=00:01:22.23 bitrate=96528.1kbits/s speed=1.24x    frame= 5010 fps= 75 q=13.0 size=  976640kB time=00:01:23.01 bitrate=96374.3kbits/s speed=1.24x    frame= 5051 fps= 75 q=12.0 size=  984064kB time=00:01:23.70 bitrate=96313.3kbits/s speed=1.24x    frame= 5086 fps= 75 q=11.0 size=  991488kB time=00:01:24.28 bitrate=96367.6kbits/s speed=1.24x    frame= 5130 fps= 75 q=14.0 size=  998912kB time=00:01:25.01 bitrate=96250.9kbits/s speed=1.24x    frame= 5170 fps= 75 q=14.0 size= 1005568kB time=00:01:25.68 bitrate=96137.6kbits/s speed=1.24x    frame= 5197 fps= 75 q=14.0 size= 1010176kB time=00:01:26.13 bitrate=96073.1kbits/s speed=1.24x    frame= 5237 fps= 75 q=15.0 size= 1017856kB time=00:01:26.80 bitrate=96059.3kbits/s speed=1.24x    frame= 5276 fps= 75 q=15.0 size= 1026816kB time=00:01:27.45 bitrate=96183.9kbits/s speed=1.24x    frame= 5303 fps= 74 q=16.0 size= 1033728kB time=00:01:27.90 bitrate=96335.2kbits/s speed=1.23x    frame= 5341 fps= 74 q=15.0 size= 1043712kB time=00:01:28.53 bitrate=96569.2kbits/s speed=1.23x    frame= 5379 fps= 74 q=14.0 size= 1052672kB time=00:01:29.17 bitrate=96705.7kbits/s speed=1.23x    frame= 5413 fps= 74 q=15.0 size= 1059840kB time=00:01:29.73 bitrate=96748.8kbits/s speed=1.23x    frame= 5445 fps= 74 q=15.0 size= 1067264kB time=00:01:30.27 bitrate=96850.4kbits/s speed=1.23x    frame= 5486 fps= 74 q=14.0 size= 1075456kB time=00:01:30.95 bitrate=96859.8kbits/s speed=1.23x    frame= 5525 fps= 74 q=19.0 size= 1083648kB time=00:01:31.60 bitrate=96904.4kbits/s speed=1.23x    frame= 5549 fps= 74 q=17.0 size= 1093376kB time=00:01:32.00 bitrate=97348.9kbits/s speed=1.23x    frame= 5583 fps= 74 q=18.0 size= 1108736kB time=00:01:32.57 bitrate=98111.6kbits/s speed=1.23x    frame= 5617 fps= 74 q=18.0 size= 1122560kB time=00:01:33.14 bitrate=98729.9kbits/s speed=1.23x    frame= 5657 fps= 74 q=19.0 size= 1136896kB time=00:01:33.81 bitrate=99279.5kbits/s speed=1.23x    frame= 5693 fps= 74 q=19.0 size= 1151232kB time=00:01:34.41 bitrate=99891.9kbits/s speed=1.23x    frame= 5729 fps= 74 q=19.0 size= 1164032kB time=00:01:35.01 bitrate=100364.0kbits/s speed=1.23x    frame= 5764 fps= 74 q=22.0 size= 1175040kB time=00:01:35.59 bitrate=100694.3kbits/s speed=1.23x    frame= 5785 fps= 74 q=19.0 size= 1181696kB time=00:01:35.94 bitrate=100894.9kbits/s speed=1.22x    frame= 5818 fps= 74 q=19.0 size= 1192960kB time=00:01:36.49 bitrate=101275.5kbits/s speed=1.22x    frame= 5852 fps= 74 q=19.0 size= 1203456kB time=00:01:37.06 bitrate=101569.5kbits/s speed=1.22x    frame= 5887 fps= 74 q=19.0 size= 1212928kB time=00:01:37.64 bitrate=101756.8kbits/s speed=1.22x    frame= 5915 fps= 74 q=18.0 size= 1220864kB time=00:01:38.11 bitrate=101934.9kbits/s speed=1.22x    frame= 5956 fps= 74 q=16.0 size= 1229056kB time=00:01:38.79 bitrate=101908.4kbits/s speed=1.22x    frame= 6000 fps= 74 q=16.0 size= 1236992kB time=00:01:39.53 bitrate=101810.0kbits/s speed=1.22x    frame= 6034 fps= 74 q=15.0 size= 1242624kB time=00:01:40.10 bitrate=101694.0kbits/s speed=1.22x    frame= 6070 fps= 74 q=16.0 size= 1247744kB time=00:01:40.70 bitrate=101504.0kbits/s speed=1.22x    frame= 6109 fps= 74 q=17.0 size= 1254400kB time=00:01:41.35 bitrate=101390.4kbits/s speed=1.22x    frame= 6149 fps= 74 q=16.0 size= 1261056kB time=00:01:42.01 bitrate=101261.6kbits/s speed=1.22x    frame= 6188 fps= 74 q=15.0 size= 1267456kB time=00:01:42.66 bitrate=101130.5kbits/s speed=1.22x    frame= 6228 fps= 74 q=16.0 size= 1273856kB time=00:01:43.33 bitrate=100984.8kbits/s speed=1.22x    frame= 6257 fps= 74 q=16.0 size= 1278464kB time=00:01:43.82 bitrate=100877.8kbits/s speed=1.22x    frame= 6293 fps= 74 q=16.0 size= 1284864kB time=00:01:44.42 bitrate=100799.7kbits/s speed=1.22x    frame= 6329 fps= 74 q=16.0 size= 1291264kB time=00:01:45.02 bitrate=100722.4kbits/s speed=1.22x    frame= 6369 fps= 74 q=16.0 size= 1298176kB time=00:01:45.68 bitrate=100622.2kbits/s speed=1.22x    frame= 6405 fps= 74 q=15.0 size= 1304832kB time=00:01:46.28 bitrate=100566.6kbits/s speed=1.22x    frame= 6444 fps= 74 q=18.0 size= 1312000kB time=00:01:46.94 bitrate=100503.9kbits/s speed=1.22x    frame= 6482 fps= 74 q=19.0 size= 1320704kB time=00:01:47.57 bitrate=100574.4kbits/s speed=1.22x    frame= 6519 fps= 74 q=19.0 size= 1332736kB time=00:01:48.19 bitrate=100911.6kbits/s speed=1.22x    frame= 6554 fps= 74 q=20.0 size= 1343488kB time=00:01:48.77 bitrate=101179.6kbits/s speed=1.22x    frame= 6593 fps= 74 q=21.0 size= 1357056kB time=00:01:49.42 bitrate=101593.8kbits/s speed=1.22x    frame= 6617 fps= 73 q=21.0 size= 1365504kB time=00:01:49.82 bitrate=101853.5kbits/s speed=1.22x    frame= 6647 fps= 73 q=21.0 size= 1377280kB time=00:01:50.32 bitrate=102265.9kbits/s speed=1.22x    frame= 6676 fps= 73 q=21.0 size= 1387776kB time=00:01:50.81 bitrate=102595.3kbits/s speed=1.22x    frame= 6718 fps= 73 q=22.0 size= 1403392kB time=00:01:51.51 bitrate=103097.8kbits/s speed=1.22x    frame= 6749 fps= 73 q=17.0 size= 1415168kB time=00:01:52.02 bitrate=103483.0kbits/s speed=1.21x    frame= 6794 fps= 73 q=16.0 size= 1426944kB time=00:01:52.77 bitrate=103649.5kbits/s speed=1.22x    frame= 6839 fps= 73 q=16.0 size= 1434880kB time=00:01:53.53 bitrate=103536.7kbits/s speed=1.22x    frame= 6871 fps= 73 q=17.0 size= 1440256kB time=00:01:54.06 bitrate=103438.2kbits/s speed=1.22x    frame= 6912 fps= 73 q=14.0 size= 1447936kB time=00:01:54.74 bitrate=103369.9kbits/s speed=1.22x    frame= 6958 fps= 73 q=17.0 size= 1455360kB time=00:01:55.51 bitrate=103209.7kbits/s speed=1.22x    frame= 7001 fps= 74 q=16.0 size= 1462784kB time=00:01:56.23 bitrate=103095.9kbits/s speed=1.22x    frame= 7042 fps= 74 q=15.0 size= 1468928kB time=00:01:56.91 bitrate=102923.2kbits/s speed=1.22x    frame= 7085 fps= 74 q=19.0 size= 1476608kB time=00:01:57.63 bitrate=102830.4kbits/s speed=1.22x    frame= 7133 fps= 74 q=17.0 size= 1485568kB time=00:01:58.43 bitrate=102754.8kbits/s speed=1.22x    frame= 7179 fps= 74 q=15.0 size= 1491712kB time=00:01:59.20 bitrate=102515.5kbits/s speed=1.23x    frame= 7217 fps= 74 q=14.0 size= 1496576kB time=00:01:59.83 bitrate=102305.7kbits/s speed=1.23x    frame= 7257 fps= 74 q=13.0 size= 1501952kB time=00:02:00.50 bitrate=102104.6kbits/s speed=1.23x    frame= 7301 fps= 74 q=15.0 size= 1507584kB time=00:02:01.23 bitrate=101867.0kbits/s speed=1.23x    frame= 7346 fps= 74 q=14.0 size= 1512960kB time=00:02:01.98 bitrate=101601.1kbits/s speed=1.23x    frame= 7394 fps= 74 q=13.0 size= 1518592kB time=00:02:02.78 bitrate=101314.2kbits/s speed=1.23x    frame= 7443 fps= 74 q=11.0 size= 1523712kB time=00:02:03.60 bitrate=100983.5kbits/s speed=1.23x    frame= 7485 fps= 74 q=14.0 size= 1528576kB time=00:02:04.30 bitrate=100734.8kbits/s speed=1.23x    frame= 7541 fps= 74 q=13.0 size= 1534464kB time=00:02:05.24 bitrate=100368.5kbits/s speed=1.24x    frame= 7579 fps= 74 q=12.0 size= 1538560kB time=00:02:05.87 bitrate=100129.5kbits/s speed=1.24x    frame= 7625 fps= 75 q=13.0 size= 1543168kB time=00:02:06.64 bitrate=99820.8kbits/s speed=1.24x    frame= 7672 fps= 75 q=10.0 size= 1548288kB time=00:02:07.42 bitrate=99535.7kbits/s speed=1.24x    frame= 7714 fps= 75 q=15.0 size= 1554176kB time=00:02:08.12 bitrate=99367.9kbits/s speed=1.24x    frame= 7758 fps= 75 q=16.0 size= 1560576kB time=00:02:08.86 bitrate=99208.7kbits/s speed=1.24x    frame= 7791 fps= 75 q=18.0 size= 1565696kB time=00:02:09.41 bitrate=99110.7kbits/s speed=1.24x    frame= 7819 fps= 75 q=18.0 size= 1571584kB time=00:02:09.87 bitrate=99125.6kbits/s speed=1.24x    frame= 7856 fps= 75 q=17.0 size= 1582080kB time=00:02:10.49 bitrate=99315.6kbits/s speed=1.24x    frame= 7901 fps= 75 q=16.0 size= 1591552kB time=00:02:11.24 bitrate=99338.7kbits/s speed=1.24x    frame= 7933 fps= 75 q=16.0 size= 1597696kB time=00:02:11.78 bitrate=99318.2kbits/s speed=1.24x    frame= 7968 fps= 75 q=16.0 size= 1605120kB time=00:02:12.36 bitrate=99339.6kbits/s speed=1.24x    frame= 8011 fps= 75 q=17.0 size= 1613312kB time=00:02:13.08 bitrate=99308.3kbits/s speed=1.24x    frame= 8049 fps= 75 q=17.0 size= 1621504kB time=00:02:13.71 bitrate=99339.4kbits/s speed=1.24x    frame= 8083 fps= 75 q=18.0 size= 1629952kB time=00:02:14.28 bitrate=99435.1kbits/s speed=1.24x    frame= 8121 fps= 75 q=19.0 size= 1639424kB time=00:02:14.91 bitrate=99543.0kbits/s speed=1.24x    frame= 8158 fps= 75 q=19.0 size= 1650176kB time=00:02:15.53 bitrate=99739.5kbits/s speed=1.24x    frame= 8187 fps= 74 q=19.0 size= 1659136kB time=00:02:16.01 bitrate=99924.4kbits/s speed=1.24x    frame= 8223 fps= 74 q=21.0 size= 1671680kB time=00:02:16.61 bitrate=100237.3kbits/s speed=1.24x    frame= 8260 fps= 74 q=21.0 size= 1686272kB time=00:02:17.23 bitrate=100657.4kbits/s speed=1.24x    frame= 8294 fps= 74 q=22.0 size= 1702656kB time=00:02:17.80 bitrate=101217.1kbits/s speed=1.24x    frame= 8318 fps= 74 q=22.0 size= 1715200kB time=00:02:18.20 bitrate=101667.4kbits/s speed=1.23x    frame= 8352 fps= 74 q=22.0 size= 1731328kB time=00:02:18.77 bitrate=102203.9kbits/s speed=1.23x    frame= 8383 fps= 74 q=24.0 size= 1746176kB time=00:02:19.28 bitrate=102697.7kbits/s speed=1.23x    frame= 8421 fps= 74 q=24.0 size= 1762304kB time=00:02:19.92 bitrate=103176.6kbits/s speed=1.23x    frame= 8455 fps= 74 q=24.0 size= 1777408kB time=00:02:20.49 bitrate=103640.7kbits/s speed=1.23x    frame= 8488 fps= 74 q=24.0 size= 1790720kB time=00:02:21.04 bitrate=104009.4kbits/s speed=1.23x    frame= 8526 fps= 74 q=17.0 size= 1805824kB time=00:02:21.67 bitrate=104417.3kbits/s speed=1.23x    frame= 8562 fps= 74 q=17.0 size= 1809664kB time=00:02:22.27 bitrate=104197.6kbits/s speed=1.23x    frame= 8609 fps= 74 q=16.0 size= 1814784kB time=00:02:23.05 bitrate=103919.7kbits/s speed=1.23x    frame= 8653 fps= 74 q=16.0 size= 1818880kB time=00:02:23.79 bitrate=103622.5kbits/s speed=1.23x    frame= 8691 fps= 74 q=16.0 size= 1822720kB time=00:02:24.42 bitrate=103385.5kbits/s speed=1.23x    frame= 8737 fps= 74 q=16.0 size= 1827584kB time=00:02:25.19 bitrate=103113.5kbits/s speed=1.23x    frame= 8779 fps= 74 q=16.0 size= 1832448kB time=00:02:25.89 bitrate=102891.3kbits/s speed=1.24x    frame= 8814 fps= 74 q=18.0 size= 1836800kB time=00:02:26.47 bitrate=102724.6kbits/s speed=1.23x    frame= 8854 fps= 74 q=19.0 size= 1842944kB time=00:02:27.14 bitrate=102600.8kbits/s speed=1.24x    frame= 8890 fps= 74 q=19.0 size= 1848576kB time=00:02:27.74 bitrate=102495.9kbits/s speed=1.23x    frame= 8921 fps= 74 q=19.0 size= 1853952kB time=00:02:28.26 bitrate=102435.5kbits/s speed=1.23x    frame= 8962 fps= 74 q=19.0 size= 1860352kB time=00:02:28.94 bitrate=102317.0kbits/s speed=1.23x    frame= 9000 fps= 74 q=18.0 size= 1866240kB time=00:02:29.58 bitrate=102205.9kbits/s speed=1.23x    frame= 9027 fps= 74 q=19.0 size= 1870336kB time=00:02:30.03 bitrate=102122.6kbits/s speed=1.23x    frame= 9065 fps= 74 q=17.0 size= 1876480kB time=00:02:30.66 bitrate=102027.0kbits/s speed=1.23x    frame= 9098 fps= 74 q=17.0 size= 1880832kB time=00:02:31.21 bitrate=101891.3kbits/s speed=1.23x    frame= 9134 fps= 74 q=17.0 size= 1884672kB time=00:02:31.81 bitrate=101695.4kbits/s speed=1.23x    frame= 9173 fps= 74 q=17.0 size= 1889024kB time=00:02:32.46 bitrate=101495.3kbits/s speed=1.23x    frame= 9209 fps= 74 q=17.0 size= 1893120kB time=00:02:33.06 bitrate=101316.2kbits/s speed=1.23x    frame= 9251 fps= 74 q=16.0 size= 1897728kB time=00:02:33.77 bitrate=101100.1kbits/s speed=1.23x    frame= 9283 fps= 74 q=17.0 size= 1902080kB time=00:02:34.30 bitrate=100981.3kbits/s speed=1.23x    frame= 9319 fps= 74 q=17.0 size= 1908736kB time=00:02:34.90 bitrate=100941.8kbits/s speed=1.23x    frame= 9357 fps= 74 q=17.0 size= 1915136kB time=00:02:35.53 bitrate=100867.4kbits/s speed=1.23x    frame= 9405 fps= 74 q=18.0 size= 1923584kB time=00:02:36.33 bitrate=100793.4kbits/s speed=1.23x    frame= 9443 fps= 74 q=16.0 size= 1930240kB time=00:02:36.97 bitrate=100733.7kbits/s speed=1.23x    frame= 9481 fps= 74 q=17.0 size= 1936896kB time=00:02:37.60 bitrate=100674.5kbits/s speed=1.23x    frame= 9512 fps= 74 q=17.0 size= 1942784kB time=00:02:38.12 bitrate=100650.2kbits/s speed=1.23x    frame= 9555 fps= 74 q=17.0 size= 1951232kB time=00:02:38.84 bitrate=100631.4kbits/s speed=1.23x    frame= 9596 fps= 74 q=17.0 size= 1958400kB time=00:02:39.52 bitrate=100568.0kbits/s speed=1.23x    frame= 9627 fps= 74 q=17.0 size= 1963520kB time=00:02:40.04 bitrate=100505.1kbits/s speed=1.23x    frame= 9669 fps= 74 q=16.0 size= 1970688kB time=00:02:40.74 bitrate=100432.2kbits/s speed=1.23x    frame= 9712 fps= 74 q=16.0 size= 1977088kB time=00:02:41.46 bitrate=100310.7kbits/s speed=1.23x    frame= 9744 fps= 74 q=20.0 size= 1982208kB time=00:02:41.99 bitrate=100239.1kbits/s speed=1.23x    frame= 9777 fps= 74 q=20.0 size= 1989632kB time=00:02:42.54 bitrate=100273.7kbits/s speed=1.23x    frame= 9811 fps= 74 q=20.0 size= 1999872kB time=00:02:43.11 bitrate=100439.3kbits/s speed=1.23x    frame= 9849 fps= 74 q=20.0 size= 2010624kB time=00:02:43.74 bitrate=100588.3kbits/s speed=1.23x    frame= 9884 fps= 74 q=19.0 size= 2021120kB time=00:02:44.33 bitrate=100754.1kbits/s speed=1.23x    frame= 9917 fps= 74 q=20.0 size= 2030080kB time=00:02:44.88 bitrate=100862.9kbits/s speed=1.23x    frame= 9955 fps= 74 q=20.0 size= 2040832kB time=00:02:45.51 bitrate=101008.7kbits/s speed=1.23x    frame= 9982 fps= 74 q=20.0 size= 2048768kB time=00:02:45.96 bitrate=101126.3kbits/s speed=1.23x    frame=10017 fps= 74 q=20.0 size= 2060032kB time=00:02:46.54 bitrate=101325.8kbits/s speed=1.23x    frame=10056 fps= 74 q=17.0 size= 2072064kB time=00:02:47.20 bitrate=101521.0kbits/s speed=1.23x    frame=10094 fps= 74 q=16.0 size= 2078720kB time=00:02:47.83 bitrate=101462.4kbits/s speed=1.23x    frame=10133 fps= 74 q=16.0 size= 2083584kB time=00:02:48.48 bitrate=101307.0kbits/s speed=1.23x    frame=10179 fps= 74 q=17.0 size= 2088960kB time=00:02:49.25 bitrate=101107.9kbits/s speed=1.23x    frame=10219 fps= 74 q=15.0 size= 2094080kB time=00:02:49.91 bitrate=100957.7kbits/s speed=1.23x    frame=10259 fps= 74 q=16.0 size= 2099456kB time=00:02:50.58 bitrate=100820.9kbits/s speed=1.23x    frame=10300 fps= 74 q=16.0 size= 2104576kB time=00:02:51.27 bitrate=100663.1kbits/s speed=1.23x    frame=10337 fps= 74 q=16.0 size= 2109440kB time=00:02:51.88 bitrate=100533.4kbits/s speed=1.23x    frame=10380 fps= 74 q=15.0 size= 2115584kB time=00:02:52.60 bitrate=100407.2kbits/s speed=1.23x    frame=10423 fps= 74 q=16.0 size= 2120960kB time=00:02:53.32 bitrate=100245.7kbits/s speed=1.23x    frame=10457 fps= 74 q=17.0 size= 2125568kB time=00:02:53.89 bitrate=100135.8kbits/s speed=1.23x    frame=10496 fps= 74 q=15.0 size= 2131200kB time=00:02:54.54 bitrate=100026.8kbits/s speed=1.23x    frame=10542 fps= 74 q=15.0 size= 2136064kB time=00:02:55.30 bitrate=99816.2kbits/s speed=1.23x    frame=10575 fps= 74 q=15.0 size= 2139392kB time=00:02:55.85 bitrate=99658.8kbits/s speed=1.23x    frame=10609 fps= 74 q=15.0 size= 2143744kB time=00:02:56.42 bitrate=99540.4kbits/s speed=1.23x    frame=10649 fps= 74 q=15.0 size= 2147584kB time=00:02:57.09 bitrate=99343.0kbits/s speed=1.23x    frame=10693 fps= 74 q=15.0 size= 2152704kB time=00:02:57.82 bitrate=99168.8kbits/s speed=1.23x    frame=10722 fps= 74 q=15.0 size= 2158080kB time=00:02:58.31 bitrate=99146.7kbits/s speed=1.23x    frame=10760 fps= 74 q=14.0 size= 2162688kB time=00:02:58.94 bitrate=99006.4kbits/s speed=1.23x    frame=10806 fps= 74 q=15.0 size= 2168832kB time=00:02:59.71 bitrate=98863.6kbits/s speed=1.23x    frame=10847 fps= 74 q=13.0 size= 2173696kB time=00:03:00.39 bitrate=98709.7kbits/s speed=1.23x    frame=10884 fps= 74 q=13.0 size= 2178048kB time=00:03:01.01 bitrate=98570.0kbits/s speed=1.23x    frame=10925 fps= 74 q=15.0 size= 2183168kB time=00:03:01.69 bitrate=98429.8kbits/s speed=1.23x    frame=10969 fps= 74 q=13.0 size= 2188800kB time=00:03:02.43 bitrate=98286.6kbits/s speed=1.23x    frame=11014 fps= 74 q=12.0 size= 2193920kB time=00:03:03.18 bitrate=98112.8kbits/s speed=1.24x    frame=11051 fps= 74 q=21.0 size= 2200832kB time=00:03:03.80 bitrate=98091.3kbits/s speed=1.24x    frame=11084 fps= 74 q=22.0 size= 2217472kB time=00:03:04.35 bitrate=98537.8kbits/s speed=1.23x    frame=11118 fps= 74 q=25.0 size= 2239232kB time=00:03:04.91 bitrate=99199.5kbits/s speed=1.23x    frame=11150 fps= 74 q=25.0 size= 2254336kB time=00:03:05.45 bitrate=99581.1kbits/s speed=1.23x    frame=11176 fps= 74 q=25.0 size= 2265344kB time=00:03:05.88 bitrate=99833.9kbits/s speed=1.23x    frame=11202 fps= 74 q=24.0 size= 2275072kB time=00:03:06.31 bitrate=100029.2kbits/s speed=1.23x    frame=11239 fps= 74 q=25.0 size= 2288640kB time=00:03:06.93 bitrate=100293.5kbits/s speed=1.23x    frame=11275 fps= 74 q=25.0 size= 2303232kB time=00:03:07.53 bitrate=100609.7kbits/s speed=1.23x    frame=11298 fps= 74 q=25.0 size= 2312704kB time=00:03:07.92 bitrate=100817.2kbits/s speed=1.23x    frame=11330 fps= 74 q=20.0 size= 2325248kB time=00:03:08.45 bitrate=101076.8kbits/s speed=1.23x    frame=11368 fps= 74 q=20.0 size= 2339328kB time=00:03:09.08 bitrate=101347.9kbits/s speed=1.23x    frame=11404 fps= 74 q=23.0 size= 2352640kB time=00:03:09.68 bitrate=101601.9kbits/s speed=1.23x    frame=11433 fps= 74 q=21.0 size= 2363392kB time=00:03:10.17 bitrate=101806.6kbits/s speed=1.23x    frame=11472 fps= 74 q=21.0 size= 2377984kB time=00:03:10.82 bitrate=102085.9kbits/s speed=1.23x    frame=11516 fps= 74 q=21.0 size= 2393088kB time=00:03:11.55 bitrate=102340.6kbits/s speed=1.23x    frame=11540 fps= 74 q=22.0 size= 2401280kB time=00:03:11.95 bitrate=102476.8kbits/s speed=1.23x    frame=11578 fps= 74 q=21.0 size= 2415360kB time=00:03:12.59 bitrate=102738.3kbits/s speed=1.23x    frame=11612 fps= 74 q=21.0 size= 2426880kB time=00:03:13.15 bitrate=102925.2kbits/s speed=1.23x    frame=11647 fps= 74 q=22.0 size= 2439424kB time=00:03:13.74 bitrate=103145.4kbits/s speed=1.23x    frame=11673 fps= 74 q=20.0 size= 2448128kB time=00:03:14.17 bitrate=103282.2kbits/s speed=1.23x    frame=11709 fps= 74 q=21.0 size= 2460416kB time=00:03:14.77 bitrate=103480.5kbits/s speed=1.23x    frame=11748 fps= 74 q=21.0 size= 2471168kB time=00:03:15.42 bitrate=103586.7kbits/s speed=1.23x    frame=11780 fps= 74 q=22.0 size= 2480384kB time=00:03:15.96 bitrate=103689.8kbits/s speed=1.23x    frame=11816 fps= 74 q=22.0 size= 2491136kB time=00:03:16.56 bitrate=103821.1kbits/s speed=1.22x    frame=11849 fps= 74 q=22.0 size= 2500352kB time=00:03:17.11 bitrate=103914.1kbits/s speed=1.22x    frame=11884 fps= 74 q=25.0 size= 2510592kB time=00:03:17.69 bitrate=104031.5kbits/s speed=1.22x    frame=11923 fps= 74 q=22.0 size= 2522112kB time=00:03:18.34 bitrate=104166.0kbits/s speed=1.22x    frame=11963 fps= 74 q=21.0 size= 2532352kB time=00:03:19.01 bitrate=104238.2kbits/s speed=1.22x    frame=11998 fps= 74 q=21.0 size= 2541824kB time=00:03:19.59 bitrate=104322.0kbits/s speed=1.22x    frame=12032 fps= 74 q=21.0 size= 2550528kB time=00:03:20.16 bitrate=104382.6kbits/s speed=1.22x    frame=12073 fps= 74 q=22.0 size= 2561536kB time=00:03:20.85 bitrate=104476.1kbits/s speed=1.22x    frame=12110 fps= 74 q=22.0 size= 2571264kB time=00:03:21.46 bitrate=104551.6kbits/s speed=1.22x    frame=12139 fps= 74 q=19.0 size= 2578432kB time=00:03:21.95 bitrate=104591.9kbits/s speed=1.22x    frame=12173 fps= 74 q=19.0 size= 2585344kB time=00:03:22.51 bitrate=104578.5kbits/s speed=1.22x    frame=12214 fps= 74 q=19.0 size= 2588672kB time=00:03:23.20 bitrate=104360.6kbits/s speed=1.22x    frame=12250 fps= 74 q=18.0 size= 2592256kB time=00:03:23.80 bitrate=104197.2kbits/s speed=1.22x    frame=12289 fps= 74 q=18.0 size= 2595840kB time=00:03:24.45 bitrate=104009.2kbits/s speed=1.22x    frame=12327 fps= 74 q=18.0 size= 2599680kB time=00:03:25.08 bitrate=103841.0kbits/s speed=1.22x    frame=12367 fps= 74 q=19.0 size= 2603520kB time=00:03:25.75 bitrate=103657.1kbits/s speed=1.22x    frame=12403 fps= 74 q=18.0 size= 2607360kB time=00:03:26.35 bitrate=103507.9kbits/s speed=1.22x    frame=12443 fps= 74 q=18.0 size= 2610944kB time=00:03:27.02 bitrate=103316.1kbits/s speed=1.22x    frame=12481 fps= 74 q=18.0 size= 2615552kB time=00:03:27.65 bitrate=103182.4kbits/s speed=1.22x    frame=12526 fps= 74 q=18.0 size= 2621184kB time=00:03:28.40 bitrate=103032.1kbits/s speed=1.23x    frame=12571 fps= 74 q=18.0 size= 2626304kB time=00:03:29.15 bitrate=102862.8kbits/s speed=1.23x    frame=12610 fps= 74 q=17.0 size= 2630912kB time=00:03:29.80 bitrate=102723.7kbits/s speed=1.23x    frame=12643 fps= 74 q=18.0 size= 2635008kB time=00:03:30.36 bitrate=102614.4kbits/s speed=1.23x    frame=12681 fps= 74 q=22.0 size= 2640128kB time=00:03:30.99 bitrate=102504.9kbits/s speed=1.23x    frame=12717 fps= 74 q=21.0 size= 2649600kB time=00:03:31.59 bitrate=102580.6kbits/s speed=1.23x    frame=12742 fps= 74 q=21.0 size= 2656000kB time=00:03:32.01 bitrate=102626.1kbits/s speed=1.22x    frame=12775 fps= 74 q=21.0 size= 2664192kB time=00:03:32.56 bitrate=102676.0kbits/s speed=1.22x    frame=12811 fps= 74 q=20.0 size= 2671616kB time=00:03:33.16 bitrate=102672.0kbits/s speed=1.22x    frame=12848 fps= 74 q=21.0 size= 2678272kB time=00:03:33.78 bitrate=102630.6kbits/s speed=1.22x    frame=12874 fps= 73 q=20.0 size= 2683904kB time=00:03:34.21 bitrate=102638.2kbits/s speed=1.22x    frame=12911 fps= 73 q=20.0 size= 2690304kB time=00:03:34.83 bitrate=102587.3kbits/s speed=1.22x    frame=12948 fps= 73 q=20.0 size= 2696960kB time=00:03:35.44 bitrate=102546.5kbits/s speed=1.22x    frame=12980 fps= 73 q=20.0 size= 2702592kB time=00:03:35.98 bitrate=102506.6kbits/s speed=1.22x    frame=13013 fps= 73 q=20.0 size= 2709248kB time=00:03:36.53 bitrate=102497.8kbits/s speed=1.22x    frame=13051 fps= 73 q=20.0 size= 2715904kB time=00:03:37.16 bitrate=102449.7kbits/s speed=1.22x    frame=13089 fps= 73 q=20.0 size= 2722560kB time=00:03:37.80 bitrate=102401.8kbits/s speed=1.22x    frame=13118 fps= 73 q=19.0 size= 2728192kB time=00:03:38.28 bitrate=102386.2kbits/s speed=1.22x    frame=13154 fps= 73 q=19.0 size= 2733568kB time=00:03:38.88 bitrate=102306.5kbits/s speed=1.22x    frame=13189 fps= 73 q=19.0 size= 2738688kB time=00:03:39.46 bitrate=102225.4kbits/s speed=1.22x    frame=13228 fps= 73 q=20.0 size= 2744832kB time=00:03:40.11 bitrate=102151.9kbits/s speed=1.22x    frame=13269 fps= 73 q=20.0 size= 2752256kB time=00:03:40.80 bitrate=102110.9kbits/s speed=1.22x    frame=13303 fps= 73 q=19.0 size= 2757632kB time=00:03:41.37 bitrate=102048.2kbits/s speed=1.22x    frame=13331 fps= 73 q=19.0 size= 2762240kB time=00:03:41.83 bitrate=102003.4kbits/s speed=1.22x    frame=13362 fps= 73 q=19.0 size= 2767616kB time=00:03:42.35 bitrate=101964.2kbits/s speed=1.22x    frame=13402 fps= 73 q=16.0 size= 2773504kB time=00:03:43.02 bitrate=101875.4kbits/s speed=1.22x    frame=13440 fps= 73 q=17.0 size= 2779904kB time=00:03:43.65 bitrate=101821.1kbits/s speed=1.22x    frame=13479 fps= 73 q=16.0 size= 2786560kB time=00:03:44.30 bitrate=101768.8kbits/s speed=1.22x    frame=13517 fps= 73 q=17.0 size= 2792704kB time=00:03:44.94 bitrate=101705.7kbits/s speed=1.22x    frame=13556 fps= 73 q=17.0 size= 2800384kB time=00:03:45.59 bitrate=101691.3kbits/s speed=1.22x    frame=13599 fps= 73 q=18.0 size= 2808576kB time=00:03:46.30 bitrate=101665.5kbits/s speed=1.22x    frame=13642 fps= 73 q=17.0 size= 2815488kB time=00:03:47.02 bitrate=101593.6kbits/s speed=1.22x    frame=13681 fps= 73 q=17.0 size= 2822144kB time=00:03:47.67 bitrate=101542.8kbits/s speed=1.22x    frame=13714 fps= 73 q=17.0 size= 2827264kB time=00:03:48.22 bitrate=101481.6kbits/s speed=1.22x    frame=13758 fps= 73 q=16.0 size= 2831104kB time=00:03:48.96 bitrate=101293.6kbits/s speed=1.22x    frame=13801 fps= 73 q=16.0 size= 2834944kB time=00:03:49.67 bitrate=101114.2kbits/s speed=1.22x    frame=13834 fps= 73 q=16.0 size= 2838272kB time=00:03:50.23 bitrate=100990.8kbits/s speed=1.22x    frame=13875 fps= 73 q=17.0 size= 2841856kB time=00:03:50.91 bitrate=100818.8kbits/s speed=1.22x    frame=13912 fps= 73 q=17.0 size= 2845440kB time=00:03:51.53 bitrate=100676.8kbits/s speed=1.22x    frame=13952 fps= 73 q=16.0 size= 2849024kB time=00:03:52.19 bitrate=100513.9kbits/s speed=1.22x    frame=13997 fps= 73 q=16.0 size= 2853376kB time=00:03:52.94 bitrate=100343.1kbits/s speed=1.22x    frame=14037 fps= 73 q=16.0 size= 2857216kB time=00:03:53.61 bitrate=100191.1kbits/s speed=1.22x    frame=14066 fps= 73 q=16.0 size= 2859776kB time=00:03:54.10 bitrate=100073.6kbits/s speed=1.22x    frame=14105 fps= 73 q=20.0 size= 2863616kB time=00:03:54.75 bitrate=99930.2kbits/s speed=1.22x    frame=14145 fps= 73 q=18.0 size= 2869504kB time=00:03:55.41 bitrate=99851.8kbits/s speed=1.22x    frame=14179 fps= 73 q=18.0 size= 2877440kB time=00:03:55.98 bitrate=99887.3kbits/s speed=1.22x    frame=14221 fps= 73 q=18.0 size= 2887936kB time=00:03:56.68 bitrate=99954.9kbits/s speed=1.22x    frame=14265 fps= 74 q=18.0 size= 2897664kB time=00:03:57.42 bitrate=99981.5kbits/s speed=1.22x    frame=14297 fps= 73 q=18.0 size= 2905600kB time=00:03:57.95 bitrate=100030.4kbits/s speed=1.22x    frame=14333 fps= 73 q=18.0 size= 2914304kB time=00:03:58.55 bitrate=100077.5kbits/s speed=1.22x    frame=14371 fps= 73 q=18.0 size= 2923008kB time=00:03:59.18 bitrate=100110.3kbits/s speed=1.22x    frame=14415 fps= 74 q=18.0 size= 2932736kB time=00:03:59.92 bitrate=100136.2kbits/s speed=1.22x    frame=14449 fps= 73 q=17.0 size= 2941440kB time=00:04:00.49 bitrate=100196.5kbits/s speed=1.22x    frame=14493 fps= 74 q=16.0 size= 2951168kB time=00:04:01.22 bitrate=100221.9kbits/s speed=1.22x    frame=14532 fps= 74 q=18.0 size= 2958848kB time=00:04:01.87 bitrate=100212.4kbits/s speed=1.22x    frame=14565 fps= 74 q=18.0 size= 2967040kB time=00:04:02.42 bitrate=100261.7kbits/s speed=1.22x    frame=14602 fps= 74 q=19.0 size= 2975744kB time=00:04:03.04 bitrate=100300.4kbits/s speed=1.22x    frame=14643 fps= 74 q=16.0 size= 2985984kB time=00:04:03.72 bitrate=100363.1kbits/s speed=1.22x    frame=14669 fps= 73 q=19.0 size= 2992896kB time=00:04:04.16 bitrate=100416.7kbits/s speed=1.22x    frame=14706 fps= 73 q=17.0 size= 3002880kB time=00:04:04.77 bitrate=100497.6kbits/s speed=1.22x    frame=14745 fps= 73 q=16.0 size= 3010560kB time=00:04:05.42 bitrate=100487.5kbits/s speed=1.22x    frame=14783 fps= 73 q=16.0 size= 3015424kB time=00:04:06.06 bitrate=100390.6kbits/s speed=1.22x    frame=14822 fps= 73 q=16.0 size= 3021312kB time=00:04:06.71 bitrate=100321.3kbits/s speed=1.22x    frame=14866 fps= 74 q=17.0 size= 3027200kB time=00:04:07.44 bitrate=100218.6kbits/s speed=1.22x    frame=14902 fps= 74 q=17.0 size= 3032064kB time=00:04:08.04 bitrate=100136.6kbits/s speed=1.22x    frame=14945 fps= 74 q=17.0 size= 3039744kB time=00:04:08.76 bitrate=100100.7kbits/s speed=1.22x    frame=14985 fps= 74 q=16.0 size= 3046144kB time=00:04:09.43 bitrate=100043.1kbits/s speed=1.22x    frame=15019 fps= 74 q=17.0 size= 3051776kB time=00:04:09.99 bitrate=100000.7kbits/s speed=1.22x    frame=15056 fps= 74 q=21.0 size= 3058688kB time=00:04:10.61 bitrate=99980.3kbits/s speed=1.22x    frame=15088 fps= 74 q=22.0 size= 3069440kB time=00:04:11.15 bitrate=100118.5kbits/s speed=1.22x    frame=15124 fps= 73 q=24.0 size= 3085824kB time=00:04:11.75 bitrate=100412.8kbits/s speed=1.22x    frame=15148 fps= 73 q=22.0 size= 3096320kB time=00:04:12.15 bitrate=100594.3kbits/s speed=1.22x    frame=15185 fps= 73 q=22.0 size= 3112960kB time=00:04:12.76 bitrate=100887.9kbits/s speed=1.22x    frame=15219 fps= 73 q=22.0 size= 3127552kB time=00:04:13.33 bitrate=101133.9kbits/s speed=1.22x    frame=15252 fps= 73 q=22.0 size= 3141376kB time=00:04:13.88 bitrate=101360.7kbits/s speed=1.22x    frame=15279 fps= 73 q=22.0 size= 3152896kB time=00:04:14.33 bitrate=101552.2kbits/s speed=1.22x    frame=15311 fps= 73 q=21.0 size= 3164928kB time=00:04:14.87 bitrate=101726.2kbits/s speed=1.22x    frame=15355 fps= 73 q=21.0 size= 3178240kB time=00:04:15.60 bitrate=101860.7kbits/s speed=1.22x    frame=15384 fps= 73 q=22.0 size= 3186176kB time=00:04:16.08 bitrate=101922.1kbits/s speed=1.22x    frame=15419 fps= 73 q=21.0 size= 3197184kB time=00:04:16.67 bitrate=102041.6kbits/s speed=1.22x    frame=15456 fps= 73 q=18.0 size= 3208704kB time=00:04:17.29 bitrate=102163.6kbits/s speed=1.22x    frame=15500 fps= 73 q=18.0 size= 3213568kB time=00:04:18.02 bitrate=102027.3kbits/s speed=1.22x    frame=15535 fps= 73 q=18.0 size= 3216896kB time=00:04:18.60 bitrate=101902.4kbits/s speed=1.22x    frame=15571 fps= 73 q=18.0 size= 3220224kB time=00:04:19.20 bitrate=101771.5kbits/s speed=1.22x    frame=15610 fps= 73 q=17.0 size= 3223808kB time=00:04:19.85 bitrate=101629.6kbits/s speed=1.22x    frame=15647 fps= 73 q=18.0 size= 3227648kB time=00:04:20.47 bitrate=101509.5kbits/s speed=1.22x    frame=15683 fps= 73 q=18.0 size= 3231232kB time=00:04:21.07 bitrate=101388.5kbits/s speed=1.22x    frame=15721 fps= 73 q=17.0 size= 3235072kB time=00:04:21.71 bitrate=101263.1kbits/s speed=1.22x    frame=15760 fps= 73 q=16.0 size= 3239424kB time=00:04:22.36 bitrate=101147.8kbits/s speed=1.22x    frame=15796 fps= 73 q=16.0 size= 3245824kB time=00:04:22.96 bitrate=101116.2kbits/s speed=1.22x    frame=15839 fps= 73 q=16.0 size= 3251712kB time=00:04:23.68 bitrate=101024.0kbits/s speed=1.22x    frame=15883 fps= 73 q=16.0 size= 3258880kB time=00:04:24.41 bitrate=100965.6kbits/s speed=1.22x    frame=15925 fps= 73 q=16.0 size= 3265280kB time=00:04:25.11 bitrate=100896.5kbits/s speed=1.22x    frame=15962 fps= 73 q=15.0 size= 3270912kB time=00:04:25.73 bitrate=100835.8kbits/s speed=1.22x    frame=15993 fps= 73 q=14.0 size= 3275264kB time=00:04:26.24 bitrate=100773.8kbits/s speed=1.22x    frame=16032 fps= 73 q=18.0 size= 3283200kB time=00:04:26.90 bitrate=100771.7kbits/s speed=1.22x    frame=16075 fps= 73 q=18.0 size= 3290112kB time=00:04:27.61 bitrate=100713.2kbits/s speed=1.22x    frame=16103 fps= 73 q=18.0 size= 3294208kB time=00:04:28.08 bitrate=100662.9kbits/s speed=1.22x    frame=16143 fps= 73 q=18.0 size= 3300608kB time=00:04:28.75 bitrate=100608.0kbits/s speed=1.22x    frame=16187 fps= 73 q=16.0 size= 3307776kB time=00:04:29.48 bitrate=100551.8kbits/s speed=1.22x    frame=16221 fps= 73 q=17.0 size= 3313152kB time=00:04:30.05 bitrate=100503.7kbits/s speed=1.22x    frame=16266 fps= 73 q=17.0 size= 3320320kB time=00:04:30.80 bitrate=100441.9kbits/s speed=1.22x    frame=16305 fps= 73 q=16.0 size= 3326208kB time=00:04:31.45 bitrate=100378.9kbits/s speed=1.22x    frame=16337 fps= 73 q=17.0 size= 3331072kB time=00:04:31.98 bitrate=100328.3kbits/s speed=1.22x    frame=16372 fps= 73 q=16.0 size= 3337472kB time=00:04:32.57 bitrate=100305.7kbits/s speed=1.22x    frame=16411 fps= 73 q=15.0 size= 3343104kB time=00:04:33.22 bitrate=100235.7kbits/s speed=1.22x    frame=16454 fps= 73 q=16.0 size= 3349760kB time=00:04:33.94 bitrate=100172.3kbits/s speed=1.22x    frame=16490 fps= 73 q=15.0 size= 3356416kB time=00:04:34.54 bitrate=100151.8kbits/s speed=1.22x    frame=16541 fps= 73 q=17.0 size= 3364096kB time=00:04:35.39 bitrate=100070.8kbits/s speed=1.22x    frame=16572 fps= 73 q=15.0 size= 3368448kB time=00:04:35.90 bitrate=100012.4kbits/s speed=1.22x    frame=16613 fps= 73 q=17.0 size= 3375360kB time=00:04:36.59 bitrate=99969.8kbits/s speed=1.22x    frame=16655 fps= 73 q=16.0 size= 3381504kB time=00:04:37.29 bitrate=99898.7kbits/s speed=1.22x    frame=16695 fps= 74 q=17.0 size= 3385856kB time=00:04:37.96 bitrate=99787.1kbits/s speed=1.22x    frame=16733 fps= 74 q=14.0 size= 3390976kB time=00:04:38.59 bitrate=99710.6kbits/s speed=1.22x    frame=16773 fps= 74 q=15.0 size= 3395072kB time=00:04:39.26 bitrate=99592.5kbits/s speed=1.22x    frame=16818 fps= 74 q=14.0 size= 3399936kB time=00:04:40.01 bitrate=99467.8kbits/s speed=1.22x    frame=16861 fps= 74 q=21.0 size= 3404544kB time=00:04:40.73 bitrate=99348.0kbits/s speed=1.23x    frame=16890 fps= 74 q=21.0 size= 3413760kB time=00:04:41.21 bitrate=99445.6kbits/s speed=1.22x    frame=16920 fps= 74 q=20.0 size= 3427328kB time=00:04:41.71 bitrate=99663.5kbits/s speed=1.22x    frame=16949 fps= 73 q=21.0 size= 3439872kB time=00:04:42.19 bitrate=99856.7kbits/s speed=1.22x    frame=16988 fps= 73 q=21.0 size= 3456000kB time=00:04:42.84 bitrate=100094.1kbits/s speed=1.22x    frame=17027 fps= 73 q=22.0 size= 3471872kB time=00:04:43.49 bitrate=100323.0kbits/s speed=1.22x    frame=17054 fps= 73 q=22.0 size= 3483136kB time=00:04:43.95 bitrate=100488.9kbits/s speed=1.22x    frame=17080 fps= 73 q=22.0 size= 3494400kB time=00:04:44.38 bitrate=100660.1kbits/s speed=1.22x    frame=17125 fps= 73 q=22.0 size= 3510528kB time=00:04:45.13 bitrate=100858.4kbits/s speed=1.22x    frame=17157 fps= 73 q=22.0 size= 3522304kB time=00:04:45.66 bitrate=101007.6kbits/s speed=1.22x    frame=17181 fps= 73 q=23.0 size= 3531520kB time=00:04:46.06 bitrate=101130.1kbits/s speed=1.22x    frame=17217 fps= 73 q=23.0 size= 3546368kB time=00:04:46.66 bitrate=101342.6kbits/s speed=1.22x    frame=17256 fps= 73 q=23.0 size= 3562240kB time=00:04:47.32 bitrate=101565.6kbits/s speed=1.22x    frame=17286 fps= 73 q=24.0 size= 3574528kB time=00:04:47.82 bitrate=101738.7kbits/s speed=1.22x    frame=17310 fps= 73 q=23.0 size= 3584256kB time=00:04:48.22 bitrate=101873.9kbits/s speed=1.22x    frame=17347 fps= 73 q=23.0 size= 3598848kB time=00:04:48.83 bitrate=102070.0kbits/s speed=1.22x    frame=17387 fps= 73 q=23.0 size= 3613952kB time=00:04:49.50 bitrate=102262.1kbits/s speed=1.22x    frame=17412 fps= 73 q=23.0 size= 3623168kB time=00:04:49.92 bitrate=102375.4kbits/s speed=1.22x    frame=17447 fps= 73 q=19.0 size= 3636480kB time=00:04:50.50 bitrate=102545.0kbits/s speed=1.22x    frame=17486 fps= 73 q=20.0 size= 3645184kB time=00:04:51.15 bitrate=102560.8kbits/s speed=1.22x    frame=17526 fps= 73 q=22.0 size= 3652864kB time=00:04:51.82 bitrate=102541.8kbits/s speed=1.22x    frame=17569 fps= 73 q=21.0 size= 3663104kB time=00:04:52.54 bitrate=102577.1kbits/s speed=1.22x    frame=17604 fps= 73 q=21.0 size= 3671808kB time=00:04:53.12 bitrate=102616.0kbits/s speed=1.22x    frame=17645 fps= 73 q=23.0 size= 3680768kB time=00:04:53.81 bitrate=102627.0kbits/s speed=1.22x    frame=17680 fps= 73 q=22.0 size= 3688960kB time=00:04:54.39 bitrate=102651.4kbits/s speed=1.22x    frame=17724 fps= 73 q=22.0 size= 3698176kB time=00:04:55.12 bitrate=102651.9kbits/s speed=1.22x    frame=17753 fps= 73 q=21.0 size= 3704832kB time=00:04:55.61 bitrate=102668.3kbits/s speed=1.22x    frame=17780 fps= 73 q=22.0 size= 3711488kB time=00:04:56.06 bitrate=102696.3kbits/s speed=1.22x    frame=17814 fps= 73 q=21.0 size= 3717888kB time=00:04:56.62 bitrate=102676.6kbits/s speed=1.22x    frame=17858 fps= 73 q=20.0 size= 3725568kB time=00:04:57.36 bitrate=102634.7kbits/s speed=1.22x    frame=17891 fps= 73 q=20.0 size= 3730176kB time=00:04:57.91 bitrate=102571.8kbits/s speed=1.22x    frame=17923 fps= 73 q=21.0 size= 3734784kB time=00:04:58.44 bitrate=102514.8kbits/s speed=1.22x    frame=17961 fps= 73 q=20.0 size= 3740416kB time=00:04:59.08 bitrate=102451.7kbits/s speed=1.22x    frame=18003 fps= 73 q=17.0 size= 3745792kB time=00:04:59.78 bitrate=102359.2kbits/s speed=1.22x    frame=18028 fps= 73 q=22.0 size= 3749376kB time=00:05:00.19 bitrate=102314.8kbits/s speed=1.22x    frame=18061 fps= 73 q=22.0 size= 3758080kB time=00:05:00.75 bitrate=102364.6kbits/s speed=1.22x    frame=18096 fps= 73 q=23.0 size= 3767552kB time=00:05:01.33 bitrate=102423.7kbits/s speed=1.22x    frame=18133 fps= 73 q=22.0 size= 3777792kB time=00:05:01.95 bitrate=102492.1kbits/s speed=1.22x    frame=18160 fps= 73 q=21.0 size= 3785472kB time=00:05:02.40 bitrate=102547.5kbits/s speed=1.22x    frame=18196 fps= 73 q=21.0 size= 3793408kB time=00:05:03.00 bitrate=102558.8kbits/s speed=1.22x    frame=18233 fps= 73 q=20.0 size= 3798784kB time=00:05:03.62 bitrate=102495.3kbits/s speed=1.22x    frame=18270 fps= 73 q=20.0 size= 3804672kB time=00:05:04.23 bitrate=102445.9kbits/s speed=1.22x    frame=18307 fps= 73 q=24.0 size= 3811328kB time=00:05:04.85 bitrate=102417.4kbits/s speed=1.22x    frame=18345 fps= 73 q=24.0 size= 3822080kB time=00:05:05.48 bitrate=102493.1kbits/s speed=1.22x    frame=18374 fps= 73 q=24.0 size= 3833344kB time=00:05:05.97 bitrate=102632.6kbits/s speed=1.22x    frame=18405 fps= 73 q=24.0 size= 3845888kB time=00:05:06.48 bitrate=102794.7kbits/s speed=1.22x    frame=18440 fps= 73 q=24.0 size= 3858944kB time=00:05:07.07 bitrate=102947.6kbits/s speed=1.22x    frame=18481 fps= 73 q=24.0 size= 3874304kB time=00:05:07.75 bitrate=103127.6kbits/s speed=1.22x    frame=18505 fps= 73 q=24.0 size= 3883008kB time=00:05:08.15 bitrate=103225.0kbits/s speed=1.21x    frame=18538 fps= 73 q=24.0 size= 3895296kB time=00:05:08.70 bitrate=103367.0kbits/s speed=1.21x    frame=18576 fps= 73 q=24.0 size= 3908608kB time=00:05:09.34 bitrate=103507.7kbits/s speed=1.21x    frame=18609 fps= 73 q=24.0 size= 3919616kB time=00:05:09.89 bitrate=103614.8kbits/s speed=1.21x    frame=18641 fps= 73 q=24.0 size= 3931136kB time=00:05:10.42 bitrate=103740.6kbits/s speed=1.21x    frame=18681 fps= 73 q=24.0 size= 3944192kB time=00:05:11.09 bitrate=103861.9kbits/s speed=1.21x    frame=18717 fps= 73 q=24.0 size= 3955968kB time=00:05:11.69 bitrate=103971.2kbits/s speed=1.21x    frame=18747 fps= 73 q=25.0 size= 3965952kB time=00:05:12.19 bitrate=104066.5kbits/s speed=1.21x    frame=18789 fps= 73 q=25.0 size= 3980032kB time=00:05:12.89 bitrate=104202.1kbits/s speed=1.21x    frame=18808 fps= 73 q=-1.0 Lsize= 3996492kB time=00:05:13.76 bitrate=104343.8kbits/s speed=1.22x    
video:3996381kB audio:0kB subtitle:0kB other streams:0kB global headers:0kB muxing overhead: 0.002783%
[libx264 @ 0x5641edb932c0] frame I:157   Avg QP:14.91  size:1147947
[libx264 @ 0x5641edb932c0] frame P:18651 Avg QP:17.90  size:209751
[libx264 @ 0x5641edb932c0] mb I  I16..4: 100.0%  0.0%  0.0%
[libx264 @ 0x5641edb932c0] mb P  I16..4:  5.3%  0.0%  0.0%  P16..4: 58.1%  0.0%  0.0%  0.0%  0.0%    skip:36.7%
[libx264 @ 0x5641edb932c0] final ratefactor: 17.23
[libx264 @ 0x5641edb932c0] coded y,uvDC,uvAC intra: 26.7% 52.5% 25.0% inter: 27.3% 34.7% 8.3%
[libx264 @ 0x5641edb932c0] i16 v,h,dc,p: 35% 28% 13% 24%
[libx264 @ 0x5641edb932c0] i8c dc,h,v,p: 40% 25% 19% 16%
[libx264 @ 0x5641edb932c0] kb/s:104335.30
